# xmcd
#
# Track frame offsets: 
#        150
#        13525
#        23843
#        33120
#        43620
#        53530
#        65125
#        76020
#        86093
#        99778
#        111828
#        124773
#        137045
#        149028
#        160218
#        173188
#        182030
#        193435
#        203895
#        214910
#        225198
#        234645
#
# Disc length: 3276 seconds
#
# Revision: 0
# Processed by: cddbd v1.5PL3 Copyright (c) Steve Scherf et al.
# Submitted via: ExactAudioCopy v0.95a4
#
DISCID=2c0cca16
DTITLE=Glen Campbell - Gentle On My Mind - By The Time I Get To Phoeni
DTITLE=x
DYEAR=1998
DGENRE=
TTITLE0=Gentle On My Mind
TTITLE1=Catch The Wind
TTITLE2=It's Over
TTITLE3=Bowling Green
TTITLE4=Just Another Man
TTITLE5=You're My World
TTITLE6=The World I Used To Know
TTITLE7=Without Her
TTITLE8=Mary In The Morning
TTITLE9=Love Me As If There Were No Tomorrow
TTITLE10=Cryin'
TTITLE11=By The Time I Get To Phoenix
TTITLE12=Howeward Bound
TTITLE13=Tomorrow Never Comes
TTITLE14=My Baby's Gone
TTITLE15=Back In The Race
TTITLE16=Hey Little One
TTITLE17=Bad Seed
TTITLE18=I'll Be Lucky Someday
TTITLE19=You're Young And You'll Forget
TTITLE20=Love Is A Lonesome River
TTITLE21=Cold December (In Your Heart)
EXTD=
EXTT0=
EXTT1=
EXTT2=
EXTT3=
EXTT4=
EXTT5=
EXTT6=
EXTT7=
EXTT8=
EXTT9=
EXTT10=
EXTT11=
EXTT12=
EXTT13=
EXTT14=
EXTT15=
EXTT16=
EXTT17=
EXTT18=
EXTT19=
EXTT20=
EXTT21=
PLAYORDER=
